<svg width="24" height="24" viewBox="0 0 24 24" fill="none" xmlns="http://www.w3.org/2000/svg">
<path d="M12.2142 10.47V14.1413H18.2864C18.041 15.716 16.4521 18.7575 12.2142 18.7575C8.56073 18.7575 5.57729 15.7339 5.57729 12.0001C5.57729 8.26633 8.56163 5.24273 12.2142 5.24273C14.293 5.24273 15.6857 6.1251 16.4833 6.89237L19.3864 4.09271C17.5218 2.35207 15.104 1.29395 12.2142 1.29395C6.2946 1.29395 1.50806 6.08049 1.50806 12.0001C1.50806 17.9197 6.2946 22.7062 12.2142 22.7062C18.3934 22.7062 22.4921 18.3622 22.4921 12.2446C22.4921 11.5415 22.4163 11.0044 22.3235 10.47H12.2142Z" fill="black"/>
</svg>
