<svg width="24" height="24" viewBox="0 0 24 24" fill="none" xmlns="http://www.w3.org/2000/svg">
<path d="M0.817871 8.18628V12.8095C0.817871 14.5526 2.02961 15.6991 3.61419 15.6991C4.38784 15.6991 5.06828 15.4008 5.5623 14.8881V15.5779H6.66218V8.18628H5.55298V12.7443C5.55298 13.9187 4.76068 14.711 3.74469 14.711C2.71005 14.711 1.92708 13.9374 1.92708 12.7443V8.18628H0.817871ZM7.75275 8.18628V15.5779H8.80603V14.8975C9.05663 15.1521 9.35556 15.3542 9.68528 15.4919C10.015 15.6295 10.3689 15.7 10.7262 15.6991C11.0981 15.7028 11.467 15.6323 11.8114 15.4917C12.1557 15.3511 12.4686 15.1432 12.7316 14.8802C12.9946 14.6172 13.2025 14.3043 13.3431 13.96C13.4837 13.6156 13.5542 13.2467 13.5505 12.8748C13.5505 12.5052 13.4772 12.1393 13.335 11.7982C13.1927 11.4571 12.9842 11.1476 12.7216 10.8875C12.4589 10.6275 12.1474 10.4221 11.8049 10.2832C11.4624 10.1444 11.0957 10.0748 10.7262 10.0785C10.3703 10.0778 10.0179 10.1483 9.68969 10.286C9.36151 10.4237 9.06422 10.6257 8.81535 10.8801V8.18628H7.75275ZM16.9526 10.0785C15.3774 10.0785 14.1843 11.3648 14.1843 12.8748C14.1843 14.4873 15.4333 15.6711 17.0459 15.6711C18.0339 15.6711 18.8355 15.261 19.3668 14.5433L18.6025 13.9653C18.2017 14.506 17.6704 14.739 17.0459 14.739C16.1417 14.739 15.4147 14.1052 15.2655 13.229H19.6464V12.8748C19.6464 11.2809 18.4999 10.0785 16.9526 10.0785M22.8156 10.153C22.2284 10.153 21.7903 10.4233 21.5293 10.8521V10.1903H20.476V15.5779H21.5386V12.5113C21.5386 11.6817 22.0513 11.1411 22.7504 11.1411H23.1884V10.1437H22.8156M16.934 11.0106C17.7263 11.0106 18.3881 11.5605 18.5652 12.3808H15.2655C15.4799 11.5605 16.1417 11.0106 16.934 11.0106ZM10.6516 11.0106C11.6676 11.0106 12.4972 11.8495 12.4972 12.8748C12.4972 13.9281 11.6676 14.739 10.6516 14.739C10.1588 14.7365 9.68702 14.539 9.33943 14.1897C8.99183 13.8404 8.7967 13.3676 8.79671 12.8748C8.7967 12.382 8.99183 11.9092 9.33943 11.5599C9.68702 11.2105 10.1588 11.013 10.6516 11.0106V11.0106Z" fill="black"/>
<path fill-rule="evenodd" clip-rule="evenodd" d="M0.567871 7.93628H2.17708V12.7443C2.17708 13.2852 2.35373 13.7127 2.62924 14.003C2.90436 14.2929 3.29185 14.461 3.74469 14.461C4.60889 14.461 5.30298 13.7948 5.30298 12.7443V7.93628H6.91218V15.8279H5.3123V15.4286C4.8321 15.7628 4.25031 15.9491 3.61419 15.9491C2.76027 15.9491 1.99576 15.6393 1.44442 15.0841C0.892672 14.5285 0.567871 13.7408 0.567871 12.8095V7.93628ZM1.06787 8.43628V12.8095C1.06787 13.6213 1.34894 14.2784 1.7992 14.7318C2.24989 15.1856 2.88353 15.4491 3.61419 15.4491C4.32089 15.4491 4.93604 15.1777 5.38228 14.7147L5.8123 14.2684V15.3279H6.41218V8.43628H5.80298V12.7443C5.80298 14.0427 4.91248 14.961 3.74469 14.961C3.16289 14.961 2.64157 14.7423 2.26655 14.3472C1.89192 13.9524 1.67708 13.3964 1.67708 12.7443V8.43628H1.06787ZM7.50275 7.93628H9.06535V10.3441C9.2304 10.2302 9.40716 10.1334 9.59298 10.0555C9.95147 9.90508 10.3364 9.8279 10.7252 9.82846C11.1273 9.82463 11.5261 9.90045 11.8988 10.0516C12.2719 10.2028 12.6114 10.4266 12.8975 10.7099C13.1836 10.9932 13.4107 11.3303 13.5657 11.7019C13.7205 12.0731 13.8003 12.4713 13.8005 12.8735C13.8044 13.2783 13.7276 13.6798 13.5745 14.0545C13.4214 14.4296 13.1949 14.7704 12.9084 15.057C12.6218 15.3435 12.281 15.57 11.9059 15.7231C11.5312 15.8761 11.1299 15.9529 10.7252 15.9491C10.3352 15.9498 9.94891 15.8728 9.58896 15.7226C9.40129 15.6442 9.22274 15.5468 9.05603 15.4321V15.8279H7.50275V7.93628ZM8.00275 8.43628V15.3279H8.55603V14.287L8.98423 14.7221C9.21149 14.9531 9.48258 15.1363 9.78159 15.2612C10.0806 15.386 10.4015 15.4499 10.7255 15.4491L10.7287 15.4491C11.0674 15.4525 11.4033 15.3883 11.7169 15.2602C12.0304 15.1322 12.3153 14.9429 12.5548 14.7034C12.7943 14.4639 12.9836 14.179 13.1116 13.8655C13.2397 13.5519 13.3039 13.216 13.3005 12.8773L13.3005 12.8748C13.3005 12.5382 13.2338 12.205 13.1042 11.8944C12.9747 11.5838 12.7848 11.302 12.5457 11.0652C12.3065 10.8284 12.0228 10.6414 11.7109 10.5149C11.399 10.3885 11.0652 10.3251 10.7287 10.3284L10.7257 10.3285C10.4032 10.3278 10.0838 10.3918 9.7864 10.5165C9.489 10.6413 9.21959 10.8244 8.99406 11.0549L8.56535 11.4931V8.43628H8.00275ZM13.9343 12.8748C13.9343 11.2338 15.2323 9.82846 16.9526 9.82846C18.6474 9.82846 19.8964 11.1524 19.8964 12.8748V13.479H15.5896C15.811 14.0813 16.3705 14.489 17.0459 14.489C17.5977 14.489 18.0517 14.2884 18.4016 13.8165L18.552 13.6137L19.715 14.4931L19.5677 14.692C18.9873 15.4761 18.1097 15.9211 17.0459 15.9211C15.3029 15.9211 13.9343 14.6329 13.9343 12.8748ZM16.9526 10.3285C15.5225 10.3285 14.4343 11.4957 14.4343 12.8748C14.4343 14.3417 15.5637 15.4211 17.0459 15.4211C17.8643 15.4211 18.5326 15.119 19.0095 14.5865L18.6428 14.3093C18.2117 14.7806 17.6636 14.989 17.0459 14.989C16.0171 14.989 15.1882 14.2645 15.0191 13.2709L14.9694 12.979H19.3964V12.8748C19.3964 11.4093 18.3524 10.3285 16.9526 10.3285ZM22.8156 9.8937H23.4384V11.3911H22.7504C22.4686 11.3911 22.2341 11.4984 22.0679 11.6826C21.9003 11.8683 21.7886 12.1479 21.7886 12.5113V15.8279H20.226V9.94031H21.7793V10.2182C22.0601 10.0174 22.4097 9.90303 22.8156 9.90303V9.8937ZM21.2793 10.4403H20.726V15.3279H21.2886V12.5113C21.2886 12.045 21.4332 11.6396 21.6967 11.3476C21.9617 11.054 22.3331 10.8911 22.7504 10.8911H22.9384V10.3937H22.8156V10.403C22.3157 10.403 21.9585 10.6278 21.7428 10.9821L21.2793 11.7436V10.4403ZM10.6516 11.0105L10.6504 10.7606C10.0915 10.7634 9.55641 10.9873 9.16221 11.3835C8.768 11.7797 8.5467 12.3159 8.54671 12.8748C8.5467 13.4337 8.768 13.9698 9.16221 14.366C9.55641 14.7622 10.0915 14.9862 10.6504 14.989L10.6516 14.989C11.8057 14.989 12.7472 14.0661 12.7472 12.8748C12.7472 11.7138 11.8081 10.7606 10.6516 10.7606V11.0105ZM12.2472 12.8748C12.2472 11.9853 11.5274 11.2609 10.6522 11.2606C10.2257 11.2629 9.81747 11.4339 9.51664 11.7362C9.21566 12.0387 9.0467 12.4481 9.04671 12.8748C9.0467 13.3015 9.21566 13.7109 9.51664 14.0134C9.81749 14.3157 10.2258 14.4867 10.6523 14.489C11.5299 14.4886 12.2472 13.7898 12.2472 12.8748ZM15.6202 12.1308H18.2249C17.995 11.5931 17.501 11.2606 16.934 11.2606C16.3704 11.2606 15.8739 11.5904 15.6202 12.1308ZM15.0237 12.3175C15.2634 11.4004 16.0149 10.7606 16.934 10.7606C17.8517 10.7606 18.6093 11.4003 18.8096 12.328L18.8749 12.6308H14.9418L15.0237 12.3175Z" fill="black"/>
</svg>
