<svg width="80" height="80" viewBox="-1 -1 83 83" fill="none" xmlns="http://www.w3.org/2000/svg">
<path d="M51.6435 0.718038C49.3509 0.0443015 46.9479 1.35411 46.2737 3.64494L42.3132 17.0934C39.4513 26.8118 29.2541 32.3701 19.536 29.5087L6.08801 25.5491C3.79698 24.8745 1.39284 26.185 0.718275 28.476C0.0437107 30.767 1.35415 33.1712 3.64518 33.8458L17.0931 37.8053C26.8112 40.6667 32.3695 50.8639 29.5084 60.5826L25.5483 74.0296C24.8746 76.3221 26.1844 78.7251 28.4763 79.4012C30.7671 80.0754 33.1712 78.7649 33.845 76.4724L37.805 63.0254C40.6661 53.3067 50.8633 47.7485 60.5823 50.6101L74.0307 54.5682C76.3221 55.2445 78.7251 53.9347 79.3985 51.6424C80.0748 49.3509 78.765 46.9479 76.4726 46.2745L63.0251 42.3135C53.3061 39.4519 47.7479 29.2547 50.6098 19.5362L54.5685 6.08882C55.2445 3.79696 53.9341 1.39281 51.6435 0.718038Z" fill="#FFC700"  stroke="black" stroke-width="3"/>
</svg>
